<mxfile host="app.diagrams.net" modified="2023-10-02T16:24:09.046Z" agent="Mozilla/5.0 (Windows NT 10.0; Win64; x64) AppleWebKit/537.36 (KHTML, like Gecko) Chrome/116.0.0.0 Safari/537.36" etag="G6-F6_bBDC19Nq7xCLrN" version="22.0.1" type="device">
  <diagram name="PÃ¡gina-1" id="je-aUDFS3Yak37RAI1Wa">
    <mxGraphModel dx="1434" dy="790" grid="1" gridSize="10" guides="1" tooltips="1" connect="1" arrows="1" fold="1" page="1" pageScale="1" pageWidth="827" pageHeight="1169" math="0" shadow="0">
      <root>
        <mxCell id="0" />
        <mxCell id="1" parent="0" />
        <mxCell id="Do8tXg7hfw_VnGFPVGhi-8" value="" style="rounded=0;whiteSpace=wrap;html=1;dashed=1;" vertex="1" parent="1">
          <mxGeometry x="60" y="80" width="710" height="470" as="geometry" />
        </mxCell>
        <mxCell id="Do8tXg7hfw_VnGFPVGhi-1" value="" style="sketch=0;outlineConnect=0;fontColor=#232F3E;gradientColor=none;fillColor=#232F3D;strokeColor=none;dashed=0;verticalLabelPosition=bottom;verticalAlign=top;align=center;html=1;fontSize=12;fontStyle=0;aspect=fixed;pointerEvents=1;shape=mxgraph.aws4.client;" vertex="1" parent="1">
          <mxGeometry x="130" y="390" width="78" height="76" as="geometry" />
        </mxCell>
        <mxCell id="Do8tXg7hfw_VnGFPVGhi-4" value="" style="rounded=0;whiteSpace=wrap;html=1;dashed=1;" vertex="1" parent="1">
          <mxGeometry x="449" y="100" width="300" height="430" as="geometry" />
        </mxCell>
        <mxCell id="Do8tXg7hfw_VnGFPVGhi-2" value="" style="sketch=0;outlineConnect=0;fontColor=#232F3E;gradientColor=none;fillColor=#232F3D;strokeColor=none;dashed=0;verticalLabelPosition=bottom;verticalAlign=top;align=center;html=1;fontSize=12;fontStyle=0;aspect=fixed;pointerEvents=1;shape=mxgraph.aws4.client;" vertex="1" parent="1">
          <mxGeometry x="560" y="400" width="78" height="76" as="geometry" />
        </mxCell>
        <mxCell id="Do8tXg7hfw_VnGFPVGhi-3" value="" style="sketch=0;outlineConnect=0;fontColor=#232F3E;gradientColor=none;fillColor=#232F3D;strokeColor=none;dashed=0;verticalLabelPosition=bottom;verticalAlign=top;align=center;html=1;fontSize=12;fontStyle=0;aspect=fixed;pointerEvents=1;shape=mxgraph.aws4.servers;" vertex="1" parent="1">
          <mxGeometry x="560" y="140" width="78" height="78" as="geometry" />
        </mxCell>
        <mxCell id="Do8tXg7hfw_VnGFPVGhi-6" value="" style="endArrow=classic;startArrow=classic;html=1;rounded=0;" edge="1" parent="1" source="Do8tXg7hfw_VnGFPVGhi-2" target="Do8tXg7hfw_VnGFPVGhi-3">
          <mxGeometry width="50" height="50" relative="1" as="geometry">
            <mxPoint x="390" y="430" as="sourcePoint" />
            <mxPoint x="440" y="380" as="targetPoint" />
          </mxGeometry>
        </mxCell>
        <mxCell id="Do8tXg7hfw_VnGFPVGhi-7" value="" style="endArrow=classic;startArrow=classic;html=1;rounded=0;" edge="1" parent="1" source="Do8tXg7hfw_VnGFPVGhi-9" target="Do8tXg7hfw_VnGFPVGhi-3">
          <mxGeometry width="50" height="50" relative="1" as="geometry">
            <mxPoint x="390" y="430" as="sourcePoint" />
            <mxPoint x="440" y="380" as="targetPoint" />
          </mxGeometry>
        </mxCell>
        <mxCell id="Do8tXg7hfw_VnGFPVGhi-9" value="" style="sketch=0;outlineConnect=0;fontColor=#232F3E;gradientColor=none;fillColor=#232F3D;strokeColor=none;dashed=0;verticalLabelPosition=bottom;verticalAlign=top;align=center;html=1;fontSize=12;fontStyle=0;aspect=fixed;pointerEvents=1;shape=mxgraph.aws4.globe;" vertex="1" parent="1">
          <mxGeometry x="320" y="276" width="78" height="78" as="geometry" />
        </mxCell>
        <mxCell id="Do8tXg7hfw_VnGFPVGhi-10" value="" style="endArrow=classic;startArrow=classic;html=1;rounded=0;" edge="1" parent="1" source="Do8tXg7hfw_VnGFPVGhi-1" target="Do8tXg7hfw_VnGFPVGhi-9">
          <mxGeometry width="50" height="50" relative="1" as="geometry">
            <mxPoint x="390" y="430" as="sourcePoint" />
            <mxPoint x="440" y="380" as="targetPoint" />
          </mxGeometry>
        </mxCell>
        <mxCell id="Do8tXg7hfw_VnGFPVGhi-11" value="Internet" style="text;strokeColor=none;fillColor=none;align=left;verticalAlign=middle;spacingLeft=4;spacingRight=4;overflow=hidden;points=[[0,0.5],[1,0.5]];portConstraint=eastwest;rotatable=0;whiteSpace=wrap;html=1;" vertex="1" parent="1">
          <mxGeometry x="334" y="348" width="50" height="30" as="geometry" />
        </mxCell>
        <mxCell id="Do8tXg7hfw_VnGFPVGhi-12" value="&lt;font style=&quot;font-size: 36px;&quot;&gt;VLAN&lt;/font&gt;" style="text;strokeColor=#666666;fillColor=#f5f5f5;align=left;verticalAlign=middle;spacingLeft=4;spacingRight=4;overflow=hidden;points=[[0,0.5],[1,0.5]];portConstraint=eastwest;rotatable=0;whiteSpace=wrap;html=1;fontColor=#333333;" vertex="1" parent="1">
          <mxGeometry x="60" y="80" width="120" height="70" as="geometry" />
        </mxCell>
        <mxCell id="Do8tXg7hfw_VnGFPVGhi-13" value="&lt;span style=&quot;font-size: 36px;&quot;&gt;LOCAL&lt;/span&gt;" style="text;html=1;strokeColor=#666666;fillColor=#f5f5f5;align=center;verticalAlign=middle;whiteSpace=wrap;rounded=0;fontColor=#333333;" vertex="1" parent="1">
          <mxGeometry x="449" y="100" width="121" height="30" as="geometry" />
        </mxCell>
        <mxCell id="Do8tXg7hfw_VnGFPVGhi-14" value="Servidor" style="text;strokeColor=none;fillColor=none;align=left;verticalAlign=middle;spacingLeft=4;spacingRight=4;overflow=hidden;points=[[0,0.5],[1,0.5]];portConstraint=eastwest;rotatable=0;whiteSpace=wrap;html=1;" vertex="1" parent="1">
          <mxGeometry x="638" y="164" width="60" height="30" as="geometry" />
        </mxCell>
        <mxCell id="Do8tXg7hfw_VnGFPVGhi-15" value="Jogador 01" style="text;strokeColor=none;fillColor=none;align=left;verticalAlign=middle;spacingLeft=4;spacingRight=4;overflow=hidden;points=[[0,0.5],[1,0.5]];portConstraint=eastwest;rotatable=0;whiteSpace=wrap;html=1;" vertex="1" parent="1">
          <mxGeometry x="638" y="420" width="80" height="30" as="geometry" />
        </mxCell>
        <mxCell id="Do8tXg7hfw_VnGFPVGhi-16" value="Jogador 02" style="text;strokeColor=none;fillColor=none;align=left;verticalAlign=middle;spacingLeft=4;spacingRight=4;overflow=hidden;points=[[0,0.5],[1,0.5]];portConstraint=eastwest;rotatable=0;whiteSpace=wrap;html=1;" vertex="1" parent="1">
          <mxGeometry x="208" y="410" width="80" height="30" as="geometry" />
        </mxCell>
      </root>
    </mxGraphModel>
  </diagram>
</mxfile>
